<?xml version="1.0" encoding="utf-8"?>
<!-- Generator: Adobe Illustrator 22.0.0, SVG Export Plug-In . SVG Version: 6.00 Build 0)  -->
<svg version="1.1" id="Capa_1" xmlns="http://www.w3.org/2000/svg" xmlns:xlink="http://www.w3.org/1999/xlink" x="0px" y="0px"
	 viewBox="0 0 1210.4 975.6" style="enable-background:new 0 0 1210.4 975.6;" xml:space="preserve">
<style type="text/css">
	.st0{opacity:0.7;enable-background:new    ;}
	.st1{fill:#00B7B4;}
</style>
<g>
	<path class="st0" d="M761.6,937.8c-20.9-15.4-23.1-38.4-23.1-38.4l-7.8-79.9H481.1l-7.9,79.9c0,0-2.2,23.1-23.1,38.4
		c-20.9,15.4-37.3,28.5-20.9,30.8c15.9,2.1,165.6,0.2,176.6,0c11.1,0.2,160.7,2.1,176.6,0C798.9,966.4,782.5,953.2,761.6,937.8z"/>
	<path class="st0" d="M1160.2,5.9H51.7C25,5.9,3.5,27.5,3.5,54.1V753c0,26.6,21.6,48.2,48.2,48.2h1108.5c26.6,0,48.2-21.6,48.2-48.2
		V54.1C1208.4,27.5,1186.8,5.9,1160.2,5.9z M1169.9,697.7H41.9V49.8h1128V697.7z"/>
</g>
<g>
	<path class="st1" d="M430.7,321.9c2.1,7.2,5.1,14.2,8.7,20.8L429,355.9c-3.5,4.4-3.1,10.6,0.8,14.5l18.2,18.2
		c3.9,3.9,10.1,4.3,14.5,0.8l13.3-10.5c6.8,3.9,14.1,7,21.6,9.2l2,17c0.6,5.5,5.3,9.7,10.8,9.7h25.7c5.5,0,10.2-4.1,10.8-9.7
		l1.9-16.4c8.1-2.1,15.9-5.2,23.1-9.3l12.8,10.1c4.4,3.5,10.6,3.1,14.5-0.8l18.2-18.2c3.9-3.9,4.3-10.1,0.8-14.5l-9.9-12.7
		c4.1-7.2,7.3-14.7,9.5-22.8l15.4-1.7c5.5-0.6,9.7-5.3,9.7-10.8v-25.7c0-5.5-4.1-10.2-9.7-10.8l-15.1-1.7
		c-2.1-7.9-5.1-15.4-9.2-22.5l9.3-11.8c3.5-4.4,3.1-10.6-0.8-14.5L599,202.8c-3.9-3.9-10.1-4.3-14.5-0.8l-11.4,9.1
		c-7.4-4.4-15.4-7.7-23.6-9.9l-1.7-14.7c-0.6-5.5-5.3-9.7-10.8-9.7h-25.7c-5.5,0-10.2,4.1-10.8,9.7l-1.7,14.7
		c-8.6,2.3-16.7,5.8-24.3,10.3l-11.9-9.4c-4.4-3.5-10.6-3.1-14.5,0.8l-18.2,18.2c-3.9,3.9-4.3,10.1-0.8,14.5L439,248
		c-3.9,7.2-7,14.7-9,22.7l-15.9,1.8c-5.5,0.6-9.7,5.3-9.7,10.8V309c0,5.5,4.1,10.2,9.7,10.8L430.7,321.9z M524,252.3
		c23.5,0,42.5,19.1,42.5,42.5s-19.1,42.5-42.5,42.5c-23.5,0-42.5-19.1-42.5-42.5S500.6,252.3,524,252.3z"/>
	<path class="st1" d="M778.3,328.2l-13.6-11.4c-4.2-3.5-10.4-3.4-14.3,0.3l-7.5,7.1c-6.4-3.1-13.1-5.2-20-6.5l-2.1-10.4
		c-1-5.3-6-9.1-11.4-8.6l-17.7,1.5c-5.4,0.4-9.7,4.9-9.9,10.4l-0.3,10.6c-6.8,2.4-13.3,5.8-19.1,10l-9-5.9c-4.5-3.1-10.6-2.2-14.1,2
		L627.9,341c-3.6,4.2-3.4,10.4,0.3,14.3l7.9,8.4c-2.7,6.1-4.6,12.6-5.8,19.1l-11.2,2.3c-5.3,1-9.1,6-8.6,11.4l1.5,17.7
		c0.4,5.4,4.9,9.7,10.4,9.9l12.1,0.3c2.2,5.8,5.1,11.3,8.6,16.4l-6.8,10.2c-3.1,4.5-2.2,10.6,2,14.1l13.6,11.4
		c4.2,3.5,10.4,3.4,14.3-0.3l8.9-8.3c5.8,2.7,12,4.7,18.2,5.9l2.4,12.1c1,5.3,6,9.1,11.4,8.6l17.7-1.5c5.4-0.4,9.7-4.9,9.9-10.4
		l0.3-11.9c6.5-2.3,12.6-5.4,18.2-9.3l9.8,6.5c4.5,3.1,10.6,2.2,14.1-2l11.4-13.6c3.5-4.2,3.4-10.4-0.3-14.3l-7.9-8.4
		c2.9-6.1,5-12.6,6.2-19.2l10.7-2.2c5.3-1,9.1-6,8.6-11.4l-1.5-17.7c-0.4-5.4-4.9-9.7-10.4-9.9l-10.8-0.3c-2.3-6.3-5.2-12.2-9-17.7
		l5.9-8.9C783.4,337.9,782.5,331.8,778.3,328.2z M711.6,430.6c-19.1,1.7-36-12.7-37.6-31.8c-1.7-19.1,12.7-36,31.8-37.6
		c19.1-1.7,36,12.7,37.6,31.8C745,412.1,730.8,429.1,711.6,430.6z"/>
	<path class="st1" d="M492.8,478.3c-5.4,0.5-9.6,5.1-9.7,10.6l-0.1,10.9c-0.1,5.5,3.9,10.1,9.4,10.8l8,1c1.3,4.9,3.2,9.5,5.7,14
		L501,532c-3.5,4.3-3.2,10.4,0.6,14.3l7.6,7.8c3.8,3.9,9.9,4.4,14.3,1l6.5-5c4.5,2.7,9.3,4.8,14.3,6.3l0.9,8.3
		c0.5,5.4,5.1,9.6,10.6,9.7l10.9,0.1c5.5,0.1,10.1-3.9,10.8-9.4l1-7.9c5.4-1.3,10.6-3.4,15.5-6l6,4.9c4.3,3.5,10.4,3.2,14.3-0.6
		l7.8-7.6c3.9-3.8,4.4-9.9,1-14.3l-4.6-6c2.9-4.7,5.1-9.8,6.5-15.1l7.2-0.7c5.4-0.5,9.6-5.1,9.7-10.6l0.1-10.9
		c0.1-5.5-3.9-10.1-9.4-10.8l-7-0.9c-1.3-5.2-3.3-10.4-5.9-15.1l4.4-5.3c3.5-4.3,3.2-10.4-0.6-14.3l-7.6-7.8
		c-3.8-3.9-9.9-4.4-14.3-1l-5.2,4c-4.9-3-10.2-5.2-15.7-6.8l-0.7-6.8c-0.5-5.4-5.1-9.6-10.6-9.7l-10.9-0.1
		c-5.5-0.1-10.1,3.9-10.8,9.4l-0.9,6.7c-5.7,1.5-11.2,3.7-16.2,6.6l-5.4-4.4c-4.3-3.5-10.4-3.2-14.3,0.6l-7.9,7.7
		c-3.9,3.8-4.4,9.9-1,14.3l4.6,5.9c-2.7,4.7-4.8,9.8-6.2,15.1L492.8,478.3z M563.1,466c15.6,0.2,28.2,13.1,28,28.7
		s-13.1,28.2-28.7,28c-15.6-0.2-28.2-13.1-28-28.7S547.5,465.8,563.1,466z"/>
</g>
</svg>
