<?xml version="1.0" encoding="utf-8"?>
<!-- Generator: Adobe Illustrator 22.0.0, SVG Export Plug-In . SVG Version: 6.00 Build 0)  -->
<svg version="1.1" id="Capa_1" xmlns="http://www.w3.org/2000/svg" xmlns:xlink="http://www.w3.org/1999/xlink" x="0px" y="0px"
	 viewBox="0 0 1210.4 975.6" style="enable-background:new 0 0 1210.4 975.6;" xml:space="preserve">
<style type="text/css">
	.st0{opacity:0.7;enable-background:new    ;}
	.st1{fill:#00B7B4;}
</style>
<g>
	<path class="st0" d="M761.6,937.8c-20.9-15.4-23.1-38.4-23.1-38.4l-7.8-79.9H481.1l-7.9,79.9c0,0-2.2,23.1-23.1,38.4
		c-20.9,15.4-37.3,28.5-20.9,30.8c15.9,2.1,165.6,0.2,176.6,0c11.1,0.2,160.7,2.1,176.6,0C798.9,966.4,782.5,953.2,761.6,937.8z"/>
	<path class="st0" d="M1160.2,5.9H51.7C25,5.9,3.5,27.5,3.5,54.1V753c0,26.6,21.6,48.2,48.2,48.2h1108.5c26.6,0,48.2-21.6,48.2-48.2
		V54.1C1208.4,27.5,1186.8,5.9,1160.2,5.9z M1169.9,697.7H41.9V49.8h1128V697.7z"/>
</g>
<g>
	<path class="st1" d="M779.2,351.4c-0.4,0-1-0.1-1.4-0.3c-1.2-0.8-1.7-2.4-0.9-3.6c0.3-0.4,26.4-44.1,26.4-102.8
		c0-37.4-24.7-64.5-58.8-64.5c-32.5,0-58.8,26.4-58.8,58.8c0,14.9,7.9,52.9,8,53.2c0.3,1.4-0.6,2.8-2,3.1c-1.4,0.3-2.8-0.6-3.1-2
		c-0.3-1.6-8.1-38.8-8.1-54.3c0-35.3,28.7-64.1,64.1-64.1c37.1,0,64.1,29.3,64.1,69.7c0,60.3-26.9,105.1-27.2,105.5
		C781,350.9,780.1,351.4,779.2,351.4z"/>
	<path class="st1" d="M746.7,263.9c-2.9-23.9-3.1-23.9-26.7-26.8c-4-0.5-8.2-1-12.5-1.5c-0.1,1-0.3,2.1-0.3,3.1
		c0,5.1,1.5,15.4,3.2,26.1c8.8,6.1,14.5,16.1,14.5,27.7c0,18.7-15.1,33.8-33.8,33.8s-33.8-15.1-33.8-33.8c0-7,2.1-13.5,5.8-18.9
		c-2.1-12.1-4-25.9-4-34.8c0-2.4,0.5-4.5,0.7-6.7c-34.7-1.7-65.6-1.7-68.4,1.1L412.7,411.9c-11,11-11,28.8,0,39.8L532.1,571
		c11,11,28.8,11,39.8,0l178.6-178.6C758.6,384.4,751.6,304.8,746.7,263.9z M645.3,400.8c-2.2-7.7-6.7-16.9-15.1-25.4
		c-15.4-15.4-36.7-18.3-59.7-6.5l43.6,43.6l-13.3,13.3l-46.3-46.2c-3.9,3.1-5.9,4.6-9.9,8.6c-3.3,3.3-4.5,4.8-7.1,8.2l46.3,46.3
		l-13.2,13.2l-44.2-44.2c-12.2,22.1-10.9,43.9,6,60.8c7.6,7.5,17.5,13.5,25.4,15.8l-16.1,22.3c-7.2-1.7-20.2-8.3-32.8-20.9
		c-27.2-27.2-27.3-63.9-3.2-98.9L494,379.4l13.2-13.2l10,10c2.5-2.9,3.3-3.9,6.1-6.7c4.4-4.4,6.7-6.2,11.2-9.7L524,349.3l13.3-13.3
		l12.4,12.4c36.7-22.6,74.3-19.5,99.7,5.9c12.4,12.4,17.8,24.5,19,31L645.3,400.8z"/>
</g>
</svg>
