<?xml version="1.0" encoding="utf-8"?>
<!-- Generator: Adobe Illustrator 22.0.0, SVG Export Plug-In . SVG Version: 6.00 Build 0)  -->
<svg version="1.1" id="Capa_1" xmlns="http://www.w3.org/2000/svg" xmlns:xlink="http://www.w3.org/1999/xlink" x="0px" y="0px"
	 viewBox="0 0 1210.4 975.6" style="enable-background:new 0 0 1210.4 975.6;" xml:space="preserve">
<style type="text/css">
	.st0{opacity:0.7;enable-background:new    ;}
	.st1{opacity:0.9;}
	.st2{fill:#00B7B4;}
</style>
<g>
	<path class="st0" d="M761.6,937.8c-20.9-15.4-23.1-38.4-23.1-38.4l-7.8-79.9H481.1l-7.9,79.9c0,0-2.2,23.1-23.1,38.4
		c-20.9,15.4-37.3,28.5-20.9,30.8c15.9,2.1,165.6,0.2,176.6,0c11.1,0.2,160.7,2.1,176.6,0C798.9,966.4,782.5,953.2,761.6,937.8z"/>
	<path class="st0" d="M1160.2,5.9H51.7C25,5.9,3.5,27.5,3.5,54.1V753c0,26.6,21.6,48.2,48.2,48.2h1108.5c26.6,0,48.2-21.6,48.2-48.2
		V54.1C1208.4,27.5,1186.8,5.9,1160.2,5.9z M1169.9,697.7H41.9V49.8h1128V697.7z"/>
</g>
<g class="st1">
	<path class="st2" d="M771.6,300c-4.2-71.5-63.1-128.6-134.1-128.6c-43.1,0-84.9,21.1-110.7,55.6c-0.5-0.3-1.2-0.4-1.8-0.8
		c-1.6-0.8-3.2-1.5-4.8-2.2c-0.9-0.3-1.8-0.7-2.7-1c-1.6-0.5-3.2-1-4.9-1.5c-1-0.3-1.8-0.4-2.8-0.7c-1.7-0.4-3.6-0.7-5.4-1
		c-0.8-0.1-1.6-0.3-2.4-0.4c-2.6-0.3-5.2-0.4-7.9-0.4c-39.4,0-71.5,32-71.5,71.5c0,1,0.1,2,0.2,3.1c-33,18.1-55.7,55.7-55.7,93.5
		c0,56.2,45.7,101.9,101.9,101.9h40.9c4.4,0,7.9-3.5,7.9-7.9s-3.6-7.9-7.9-7.9H469c-47.5,0-86-38.6-86-86c0-33,21.5-67.3,51.1-81.3
		l4.5-2.2v-5.1c0-1,0.1-2,0.1-3l0.1-1.4l-0.1-1.5c0-0.7-0.1-1.4-0.1-2.1c0-30.6,24.9-55.6,55.6-55.6c2.4,0,4.9,0.3,7.2,0.5
		c0.6,0.1,1.2,0.2,1.8,0.3c2.2,0.3,4.2,0.8,6.3,1.4c0.3,0.1,0.5,0.2,0.8,0.3c2.3,0.7,4.5,1.6,6.6,2.5c0.5,0.3,1.1,0.4,1.6,0.8
		c1.9,1,3.8,2,5.6,3.2c15.4,9.9,25.5,27.1,25.5,46.7c0,4.4,3.6,7.9,7.9,7.9s7.9-3.5,7.9-7.9c0-21.8-9.9-41.4-25.4-54.5
		c22.8-29.8,60.2-48.7,97.5-48.7c61.5,0,112.6,48.8,117.9,110.2c-8.1-0.5-20.2-0.9-32.4,1c-4.3,0.6-7.3,4.7-6.6,9
		c0.5,3.9,4,6.8,7.9,6.8c0.4,0,0.8,0,1.2-0.1c17.6-2.6,36-0.2,37.2,0c36.9,7,64.8,41.1,64.8,79.3c0,43.9-35.8,79.6-79.6,79.6h-31.5
		c-4.4,0-7.9,3.5-7.9,7.9s3.6,7.9,7.9,7.9h31.5c52.6,0,95.5-42.8,95.5-95.5C843.4,349.9,812.9,310.9,771.6,300z"/>
	<path class="st2" d="M618.7,380.2c-0.7-0.7-1.6-1.4-2.5-1.7c-1.9-0.8-4.2-0.8-6,0c-1,0.4-1.8,1-2.5,1.7l-63.5,63.5
		c-3.1,3.1-3.1,8.1,0,11.3c1.5,1.5,3.6,2.4,5.6,2.4s4.1-0.8,5.6-2.4l49.9-49.9v163.5c0,4.4,3.6,7.9,7.9,7.9s7.9-3.5,7.9-7.9V405
		l49.9,49.9c1.5,1.5,3.6,2.4,5.6,2.4s4.1-0.8,5.6-2.4c3.1-3.1,3.1-8.1,0-11.3L618.7,380.2z"/>
</g>
</svg>
